<mxfile host="65bd71144e">
    <diagram id="uUxbUTNAJrY76QQezSYS" name="Home page">
        <mxGraphModel dx="1062" dy="479" grid="1" gridSize="10" guides="1" tooltips="1" connect="1" arrows="1" fold="1" page="1" pageScale="1" pageWidth="850" pageHeight="1100" math="0" shadow="0">
            <root>
                <mxCell id="0"/>
                <mxCell id="1" parent="0"/>
                <mxCell id="2" value="Home page:&lt;br&gt;before log in/sign up" style="rounded=0;whiteSpace=wrap;html=1;" parent="1" vertex="1">
                    <mxGeometry x="10" y="10" width="150" height="40" as="geometry"/>
                </mxCell>
                <mxCell id="4" value="Find a job" style="rounded=1;whiteSpace=wrap;html=1;" parent="1" vertex="1">
                    <mxGeometry x="100" y="130" width="120" height="60" as="geometry"/>
                </mxCell>
                <mxCell id="5" value="Find like-minded people" style="rounded=1;whiteSpace=wrap;html=1;" parent="1" vertex="1">
                    <mxGeometry x="100" y="220" width="120" height="60" as="geometry"/>
                </mxCell>
                <mxCell id="6" value="Learn a new skill" style="rounded=1;whiteSpace=wrap;html=1;" parent="1" vertex="1">
                    <mxGeometry x="100" y="310" width="120" height="60" as="geometry"/>
                </mxCell>
                <mxCell id="7" value="graphic here" style="whiteSpace=wrap;html=1;aspect=fixed;" parent="1" vertex="1">
                    <mxGeometry x="320" y="130" width="240" height="240" as="geometry"/>
                </mxCell>
                <mxCell id="9" value="Log in" style="rounded=1;whiteSpace=wrap;html=1;" parent="1" vertex="1">
                    <mxGeometry x="240" y="30" width="120" height="60" as="geometry"/>
                </mxCell>
                <mxCell id="10" value="Sign up" style="rounded=1;whiteSpace=wrap;html=1;" parent="1" vertex="1">
                    <mxGeometry x="410" y="30" width="120" height="60" as="geometry"/>
                </mxCell>
            </root>
        </mxGraphModel>
    </diagram>
    <diagram id="QMTwASkJU7onw8cpWtMI" name="Log in page">
        <mxGraphModel dx="1395" dy="597" grid="1" gridSize="10" guides="1" tooltips="1" connect="1" arrows="1" fold="1" page="1" pageScale="1" pageWidth="850" pageHeight="1100" math="0" shadow="0">
            <root>
                <mxCell id="cKkD0N_Wm9ZcQtAmidxi-0"/>
                <mxCell id="cKkD0N_Wm9ZcQtAmidxi-1" parent="cKkD0N_Wm9ZcQtAmidxi-0"/>
                <mxCell id="SRKsRSNUfaHAdESlYS3Z-0" value="Log in" style="rounded=0;whiteSpace=wrap;html=1;" parent="cKkD0N_Wm9ZcQtAmidxi-1" vertex="1">
                    <mxGeometry x="10" y="10" width="150" height="40" as="geometry"/>
                </mxCell>
                <mxCell id="SRKsRSNUfaHAdESlYS3Z-1" value="Please enter your login information below:" style="rounded=1;whiteSpace=wrap;html=1;" parent="cKkD0N_Wm9ZcQtAmidxi-1" vertex="1">
                    <mxGeometry x="325" y="50" width="200" height="90" as="geometry"/>
                </mxCell>
                <mxCell id="SRKsRSNUfaHAdESlYS3Z-3" value="Username:" style="rounded=1;whiteSpace=wrap;html=1;" parent="cKkD0N_Wm9ZcQtAmidxi-1" vertex="1">
                    <mxGeometry x="365" y="170" width="120" height="60" as="geometry"/>
                </mxCell>
                <mxCell id="SRKsRSNUfaHAdESlYS3Z-5" value="Password:" style="rounded=1;whiteSpace=wrap;html=1;" parent="cKkD0N_Wm9ZcQtAmidxi-1" vertex="1">
                    <mxGeometry x="365" y="250" width="120" height="60" as="geometry"/>
                </mxCell>
                <mxCell id="SRKsRSNUfaHAdESlYS3Z-8" value="Submit" style="ellipse;whiteSpace=wrap;html=1;" parent="cKkD0N_Wm9ZcQtAmidxi-1" vertex="1">
                    <mxGeometry x="300" y="340" width="120" height="30" as="geometry"/>
                </mxCell>
                <mxCell id="SRKsRSNUfaHAdESlYS3Z-9" value="Forgot password?" style="ellipse;whiteSpace=wrap;html=1;fillColor=#FFB366;" parent="cKkD0N_Wm9ZcQtAmidxi-1" vertex="1">
                    <mxGeometry x="430" y="340" width="120" height="30" as="geometry"/>
                </mxCell>
            </root>
        </mxGraphModel>
    </diagram>
    <diagram name="Password Reset" id="-daTmd1OzHXNhOWenuda">
        <mxGraphModel dx="1395" dy="597" grid="1" gridSize="10" guides="1" tooltips="1" connect="1" arrows="1" fold="1" page="1" pageScale="1" pageWidth="850" pageHeight="1100" math="0" shadow="0">
            <root>
                <mxCell id="XTq4CTERxpoxeyxkesFW-0"/>
                <mxCell id="XTq4CTERxpoxeyxkesFW-1" parent="XTq4CTERxpoxeyxkesFW-0"/>
                <mxCell id="XTq4CTERxpoxeyxkesFW-2" value="Password reset" style="rounded=0;whiteSpace=wrap;html=1;" vertex="1" parent="XTq4CTERxpoxeyxkesFW-1">
                    <mxGeometry x="10" y="10" width="150" height="40" as="geometry"/>
                </mxCell>
                <mxCell id="XTq4CTERxpoxeyxkesFW-3" value="Please enter your username and new password below:" style="rounded=1;whiteSpace=wrap;html=1;" vertex="1" parent="XTq4CTERxpoxeyxkesFW-1">
                    <mxGeometry x="325" y="50" width="200" height="90" as="geometry"/>
                </mxCell>
                <mxCell id="XTq4CTERxpoxeyxkesFW-4" value="Username:" style="rounded=1;whiteSpace=wrap;html=1;" vertex="1" parent="XTq4CTERxpoxeyxkesFW-1">
                    <mxGeometry x="365" y="170" width="120" height="60" as="geometry"/>
                </mxCell>
                <mxCell id="XTq4CTERxpoxeyxkesFW-5" value="Password:" style="rounded=1;whiteSpace=wrap;html=1;" vertex="1" parent="XTq4CTERxpoxeyxkesFW-1">
                    <mxGeometry x="365" y="250" width="120" height="60" as="geometry"/>
                </mxCell>
                <mxCell id="XTq4CTERxpoxeyxkesFW-6" value="Submit" style="ellipse;whiteSpace=wrap;html=1;" vertex="1" parent="XTq4CTERxpoxeyxkesFW-1">
                    <mxGeometry x="365" y="410" width="120" height="30" as="geometry"/>
                </mxCell>
                <mxCell id="XTq4CTERxpoxeyxkesFW-8" value="Confirm new password:" style="rounded=1;whiteSpace=wrap;html=1;" vertex="1" parent="XTq4CTERxpoxeyxkesFW-1">
                    <mxGeometry x="365" y="330" width="120" height="60" as="geometry"/>
                </mxCell>
            </root>
        </mxGraphModel>
    </diagram>
    <diagram id="-L_ajZnND82AZMZmST2r" name="Sign up page">
        <mxGraphModel dx="1395" dy="597" grid="1" gridSize="10" guides="1" tooltips="1" connect="1" arrows="1" fold="1" page="1" pageScale="1" pageWidth="850" pageHeight="1100" math="0" shadow="0">
            <root>
                <mxCell id="kOOoMgvwipJTZe4chEXl-0"/>
                <mxCell id="kOOoMgvwipJTZe4chEXl-1" parent="kOOoMgvwipJTZe4chEXl-0"/>
                <mxCell id="3vE9oJD_6pyTeugmDNnD-0" value="Sign up page" style="rounded=0;whiteSpace=wrap;html=1;" parent="kOOoMgvwipJTZe4chEXl-1" vertex="1">
                    <mxGeometry x="10" y="10" width="150" height="40" as="geometry"/>
                </mxCell>
                <mxCell id="Q9dXSHyr6R3gRZsoQkG2-0" value="Please enter your information below:" style="rounded=1;whiteSpace=wrap;html=1;" parent="kOOoMgvwipJTZe4chEXl-1" vertex="1">
                    <mxGeometry x="325" y="50" width="200" height="90" as="geometry"/>
                </mxCell>
                <mxCell id="Q9dXSHyr6R3gRZsoQkG2-1" value="First name" style="rounded=1;whiteSpace=wrap;html=1;" parent="kOOoMgvwipJTZe4chEXl-1" vertex="1">
                    <mxGeometry x="280" y="170" width="120" height="60" as="geometry"/>
                </mxCell>
                <mxCell id="Q9dXSHyr6R3gRZsoQkG2-5" value="Last name" style="rounded=1;whiteSpace=wrap;html=1;" parent="kOOoMgvwipJTZe4chEXl-1" vertex="1">
                    <mxGeometry x="460" y="170" width="120" height="60" as="geometry"/>
                </mxCell>
                <mxCell id="Q9dXSHyr6R3gRZsoQkG2-6" value="Username" style="rounded=1;whiteSpace=wrap;html=1;" parent="kOOoMgvwipJTZe4chEXl-1" vertex="1">
                    <mxGeometry x="380" y="260" width="120" height="60" as="geometry"/>
                </mxCell>
                <mxCell id="Q9dXSHyr6R3gRZsoQkG2-8" value="Password" style="rounded=1;whiteSpace=wrap;html=1;" parent="kOOoMgvwipJTZe4chEXl-1" vertex="1">
                    <mxGeometry x="380" y="350" width="120" height="60" as="geometry"/>
                </mxCell>
                <mxCell id="Q9dXSHyr6R3gRZsoQkG2-9" value="Confirm password" style="rounded=1;whiteSpace=wrap;html=1;" parent="kOOoMgvwipJTZe4chEXl-1" vertex="1">
                    <mxGeometry x="380" y="430" width="120" height="60" as="geometry"/>
                </mxCell>
                <mxCell id="Q9dXSHyr6R3gRZsoQkG2-10" value="By clicking this checkbox, you're confirming you're 16 years or older and agree to the terms and conditions." style="rounded=0;whiteSpace=wrap;html=1;fillColor=#2A2A2A;" parent="kOOoMgvwipJTZe4chEXl-1" vertex="1">
                    <mxGeometry x="330" y="525" width="220" height="50" as="geometry"/>
                </mxCell>
                <mxCell id="Q9dXSHyr6R3gRZsoQkG2-11" value="" style="whiteSpace=wrap;html=1;aspect=fixed;fillColor=#2A2A2A;" parent="kOOoMgvwipJTZe4chEXl-1" vertex="1">
                    <mxGeometry x="570" y="560" width="10" height="10" as="geometry"/>
                </mxCell>
                <mxCell id="Q9dXSHyr6R3gRZsoQkG2-12" value="Submit" style="rounded=1;whiteSpace=wrap;html=1;fillColor=#2A2A2A;" parent="kOOoMgvwipJTZe4chEXl-1" vertex="1">
                    <mxGeometry x="380" y="600" width="120" height="60" as="geometry"/>
                </mxCell>
            </root>
        </mxGraphModel>
    </diagram>
    <diagram id="xn9Pmsjr3oTuDqXM_2I_" name="Feed page">
        <mxGraphModel dx="1062" dy="479" grid="1" gridSize="10" guides="1" tooltips="1" connect="1" arrows="1" fold="1" page="1" pageScale="1" pageWidth="850" pageHeight="1100" math="0" shadow="0">
            <root>
                <mxCell id="ntd0J0OtVhrEZvSFnaaT-0"/>
                <mxCell id="ntd0J0OtVhrEZvSFnaaT-1" parent="ntd0J0OtVhrEZvSFnaaT-0"/>
                <mxCell id="i6AokZyhznF2m1uJhP87-0" value="Feed page" style="rounded=0;whiteSpace=wrap;html=1;" parent="ntd0J0OtVhrEZvSFnaaT-1" vertex="1">
                    <mxGeometry x="10" y="10" width="150" height="40" as="geometry"/>
                </mxCell>
                <mxCell id="4Ng7KiYA1UCq9t08fjwC-0" value="" style="rounded=0;whiteSpace=wrap;html=1;fillColor=#2A2A2A;" parent="ntd0J0OtVhrEZvSFnaaT-1" vertex="1">
                    <mxGeometry x="40" y="110" width="90" height="100" as="geometry"/>
                </mxCell>
                <mxCell id="Nyu1OO7LhU7eOiwYIc9p-0" value="Actor" style="shape=umlActor;verticalLabelPosition=bottom;verticalAlign=top;html=1;outlineConnect=0;fillColor=#2A2A2A;" parent="ntd0J0OtVhrEZvSFnaaT-1" vertex="1">
                    <mxGeometry x="70" y="120" width="30" height="60" as="geometry"/>
                </mxCell>
                <mxCell id="Nyu1OO7LhU7eOiwYIc9p-3" value="User's info" style="rounded=0;whiteSpace=wrap;html=1;fillColor=#2A2A2A;" parent="ntd0J0OtVhrEZvSFnaaT-1" vertex="1">
                    <mxGeometry x="25" y="220" width="120" height="60" as="geometry"/>
                </mxCell>
                <mxCell id="Nyu1OO7LhU7eOiwYIc9p-5" value="Article 1:" style="rounded=0;whiteSpace=wrap;html=1;fillColor=#2A2A2A;" parent="ntd0J0OtVhrEZvSFnaaT-1" vertex="1">
                    <mxGeometry x="340" y="110" width="330" height="80" as="geometry"/>
                </mxCell>
                <mxCell id="Nyu1OO7LhU7eOiwYIc9p-6" value="Feed" style="ellipse;whiteSpace=wrap;html=1;fillColor=#2A2A2A;" parent="ntd0J0OtVhrEZvSFnaaT-1" vertex="1">
                    <mxGeometry x="230" y="10" width="120" height="80" as="geometry"/>
                </mxCell>
                <mxCell id="Nyu1OO7LhU7eOiwYIc9p-7" value="Actor" style="shape=umlActor;verticalLabelPosition=bottom;verticalAlign=top;html=1;outlineConnect=0;fillColor=#2A2A2A;" parent="ntd0J0OtVhrEZvSFnaaT-1" vertex="1">
                    <mxGeometry x="275" y="120" width="30" height="60" as="geometry"/>
                </mxCell>
                <mxCell id="Nyu1OO7LhU7eOiwYIc9p-8" value="Article 2:" style="rounded=0;whiteSpace=wrap;html=1;fillColor=#2A2A2A;" parent="ntd0J0OtVhrEZvSFnaaT-1" vertex="1">
                    <mxGeometry x="340" y="250" width="330" height="80" as="geometry"/>
                </mxCell>
                <mxCell id="Nyu1OO7LhU7eOiwYIc9p-9" value="Actor" style="shape=umlActor;verticalLabelPosition=bottom;verticalAlign=top;html=1;outlineConnect=0;fillColor=#2A2A2A;" parent="ntd0J0OtVhrEZvSFnaaT-1" vertex="1">
                    <mxGeometry x="275" y="380" width="30" height="60" as="geometry"/>
                </mxCell>
                <mxCell id="Nyu1OO7LhU7eOiwYIc9p-10" value="Job post" style="rounded=0;whiteSpace=wrap;html=1;fillColor=#2A2A2A;" parent="ntd0J0OtVhrEZvSFnaaT-1" vertex="1">
                    <mxGeometry x="340" y="380" width="330" height="80" as="geometry"/>
                </mxCell>
                <mxCell id="Nyu1OO7LhU7eOiwYIc9p-11" value="Actor" style="shape=umlActor;verticalLabelPosition=bottom;verticalAlign=top;html=1;outlineConnect=0;fillColor=#2A2A2A;" parent="ntd0J0OtVhrEZvSFnaaT-1" vertex="1">
                    <mxGeometry x="275" y="260" width="30" height="60" as="geometry"/>
                </mxCell>
                <mxCell id="Nyu1OO7LhU7eOiwYIc9p-12" value="Article 3:" style="rounded=0;whiteSpace=wrap;html=1;fillColor=#2A2A2A;" parent="ntd0J0OtVhrEZvSFnaaT-1" vertex="1">
                    <mxGeometry x="340" y="500" width="330" height="80" as="geometry"/>
                </mxCell>
                <mxCell id="Nyu1OO7LhU7eOiwYIc9p-13" value="Actor" style="shape=umlActor;verticalLabelPosition=bottom;verticalAlign=top;html=1;outlineConnect=0;fillColor=#2A2A2A;" parent="ntd0J0OtVhrEZvSFnaaT-1" vertex="1">
                    <mxGeometry x="275" y="510" width="30" height="60" as="geometry"/>
                </mxCell>
            </root>
        </mxGraphModel>
    </diagram>
</mxfile>